<?xml version="1.0" encoding="UTF-8" standalone="no"?>
<!-- Created with Inkscape (http://www.inkscape.org/) -->

<svg
   version="1.1"
   id="svg2"
   width="5333.3335"
   height="4000"
   viewBox="0 0 5333.3335 4000"
   sodipodi:docname="vecteezy_programmer-people-concept-use-laptop-and-programming-code_.eps"
   xmlns:inkscape="http://www.inkscape.org/namespaces/inkscape"
   xmlns:sodipodi="http://sodipodi.sourceforge.net/DTD/sodipodi-0.dtd"
   xmlns="http://www.w3.org/2000/svg"
   xmlns:svg="http://www.w3.org/2000/svg">
  <defs
     id="defs6" />
  <sodipodi:namedview
     id="namedview4"
     pagecolor="#ffffff"
     bordercolor="#000000"
     borderopacity="0.25"
     inkscape:showpageshadow="2"
     inkscape:pageopacity="0.0"
     inkscape:pagecheckerboard="0"
     inkscape:deskcolor="#d1d1d1" />
  <g
     id="g8"
     inkscape:groupmode="layer"
     inkscape:label="ink_ext_XXXXXX"
     transform="matrix(1.3333333,0,0,-1.3333333,0,4000)">
    <g
       id="g10"
       transform="scale(0.1)">
      <path
         d="M 0,0 H 40000 V 30000 H 0 V 0"
         style="fill:#f9f9ff;fill-opacity:1;fill-rule:nonzero;stroke:none"
         id="path12" />
      <path
         d="m 12035.3,11457.7 c 1372.8,-3295.3 3269,-1536.4 5679.8,-461.4 1396.4,622.6 2402.6,659.7 3828.3,132.4 1622.4,-600.2 3485.1,-1105.8 4934.3,300.2 3264.6,3167 133.2,9785.8 -3763.4,9004.4 -1319.7,-264.6 -2327.7,-1512.1 -3617.5,-1760 -1254.1,-241.1 -2297.4,1092.9 -3356,1661.3 -1871.4,1004.9 -3309.7,-425.8 -3993,-2498.2 -716.2,-2172.4 -526.3,-4308 287.5,-6378.7"
         style="fill:#e8e8f7;fill-opacity:1;fill-rule:nonzero;stroke:none"
         id="path14" />
      <path
         d="m 30244.8,20402.8 v -4013.1 c 0,-228.7 -187.1,-415.7 -415.8,-415.7 h -4386.1 c -228.7,0 -415.9,187 -415.9,415.7 v 4013.1 c 0,228.6 187.2,415.7 415.9,415.7 H 29829 c 228.7,0 415.8,-187.1 415.8,-415.7"
         style="fill:#8a6bff;fill-opacity:1;fill-rule:nonzero;stroke:none"
         id="path16" />
      <path
         d="m 30244.8,20402.8 v -461.1 H 25027 v 461.1 c 0,228.6 187.2,415.7 415.9,415.7 H 29829 c 228.7,0 415.8,-187.1 415.8,-415.7"
         style="fill:#292f52;fill-opacity:1;fill-rule:nonzero;stroke:none"
         id="path18" />
      <path
         d="m 29621.2,20382.3 c 0,-80.4 65.1,-145.6 145.5,-145.6 80.3,0 145.5,65.2 145.5,145.6 0,80.3 -65.2,145.5 -145.5,145.5 -80.4,0 -145.5,-65.2 -145.5,-145.5"
         style="fill:#8a6bff;fill-opacity:1;fill-rule:nonzero;stroke:none"
         id="path20" />
      <path
         d="m 29075.5,20382.3 c 0,-80.4 65.1,-145.6 145.5,-145.6 80.4,0 145.5,65.2 145.5,145.6 0,80.3 -65.1,145.5 -145.5,145.5 -80.4,0 -145.5,-65.2 -145.5,-145.5"
         style="fill:#8a6bff;fill-opacity:1;fill-rule:nonzero;stroke:none"
         id="path22" />
      <path
         d="m 27286,20382.2 c 0,-80 -90,-145.5 -200,-145.5 h -1533.2 c -110,0 -200,65.5 -200,145.5 0,80.1 90,145.6 200,145.6 H 27086 c 110,0 200,-65.5 200,-145.6"
         style="fill:#cfd2d3;fill-opacity:1;fill-rule:nonzero;stroke:none"
         id="path24" />
      <path
         d="M 28526.4,19253.8 H 25630 c -57.4,0 -104,46.6 -104,104 0,57.4 46.6,103.9 104,103.9 h 2896.4 c 57.4,0 103.9,-46.5 103.9,-103.9 0,-57.4 -46.5,-104 -103.9,-104"
         style="fill:#e5e7e8;fill-opacity:1;fill-rule:nonzero;stroke:none"
         id="path26" />
      <path
         d="m 27930.5,18771.2 h -1746.2 c -57.4,0 -103.9,46.6 -103.9,104 0,57.4 46.5,103.9 103.9,103.9 h 1746.2 c 57.4,0 103.9,-46.5 103.9,-103.9 0,-57.4 -46.5,-104 -103.9,-104"
         style="fill:#e5e7e8;fill-opacity:1;fill-rule:nonzero;stroke:none"
         id="path28" />
      <path
         d="m 28969.8,18288.6 h -2785.5 c -57.4,0 -103.9,46.6 -103.9,104 0,57.4 46.5,103.9 103.9,103.9 h 2785.5 c 57.4,0 103.9,-46.5 103.9,-103.9 0,-57.4 -46.5,-104 -103.9,-104"
         style="fill:#e5e7e8;fill-opacity:1;fill-rule:nonzero;stroke:none"
         id="path30" />
      <path
         d="m 28526.4,17806 h -1579.9 c -57.4,0 -103.9,46.5 -103.9,104 0,57.4 46.5,103.9 103.9,103.9 h 1579.9 c 57.4,0 103.9,-46.5 103.9,-103.9 0,-57.5 -46.5,-104 -103.9,-104"
         style="fill:#e5e7e8;fill-opacity:1;fill-rule:nonzero;stroke:none"
         id="path32" />
      <path
         d="m 29454.9,17323.4 h -3270.6 c -57.4,0 -103.9,46.5 -103.9,104 0,57.4 46.5,103.9 103.9,103.9 h 3270.6 c 57.4,0 103.9,-46.5 103.9,-103.9 0,-57.5 -46.5,-104 -103.9,-104"
         style="fill:#e5e7e8;fill-opacity:1;fill-rule:nonzero;stroke:none"
         id="path34" />
      <path
         d="M 27057.4,16840.8 H 25630 c -57.4,0 -104,46.5 -104,103.9 0,57.4 46.6,104 104,104 h 1427.4 c 57.3,0 103.9,-46.6 103.9,-104 0,-57.4 -46.6,-103.9 -103.9,-103.9"
         style="fill:#e5e7e8;fill-opacity:1;fill-rule:nonzero;stroke:none"
         id="path36" />
      <path
         d="m 28526.4,16358.2 h -2342.1 c -57.4,0 -103.9,46.5 -103.9,103.9 0,57.5 46.5,104 103.9,104 h 2342.1 c 57.4,0 103.9,-46.5 103.9,-104 0,-57.4 -46.5,-103.9 -103.9,-103.9"
         style="fill:#e5e7e8;fill-opacity:1;fill-rule:nonzero;stroke:none"
         id="path38" />
      <path
         d="m 12135,16073.4 c -37.5,-177 -130.5,-333.5 -260,-450.5 -88.5,-80.5 -194,-142.5 -310.5,-180 -82,-26.5 -169.5,-40.5 -260.5,-40.5 -91,0 -178.5,14 -260.5,40.5 -116,37.5 -221.5,99 -310,179.5 -129.5,117 -222.5,274 -261,451 -12,57.5 -18.5,117.5 -18.5,179 0,61.5 6.5,121.5 19,179.5 38,177 131,333.5 260.5,450.5 88.5,80.5 194,142 310.5,179.5 82,26.5 169.5,40.5 260,40.5 91,0 178.5,-14 260.5,-40.5 116.5,-37.5 222,-99.5 310.5,-180 129,-117 222,-273.5 260,-450 12.5,-58 19,-118 19,-179.5 0,-61.5 -6.5,-121.5 -19,-179 z m 605,179 c 0,55.5 -3,110.5 -9.5,164.5 l 309,178.5 c -77,391 -283,736 -571.5,988 l -308.5,-178 c -87.5,65.5 -183,121 -284.5,164.5 v 356.5 c -179,61.5 -371.5,94.5 -571,94.5 -199.5,0 -391.5,-33 -570.5,-94 v -357 c -101.5,-43.5 -197,-99 -284.5,-164.5 l -309,178.5 c -288.54,-252.5 -494.52,-597.5 -571.52,-988.5 l 309.5,-179 c -6.5,-54 -9.5,-108.5 -9.5,-164 0,-55.5 3,-110.5 9.5,-164 l -309.01,-178.5 c 76.51,-391.5 282.49,-736.5 571.53,-988.5 l 308.5,178 c 87.5,-65 183,-120.5 284.5,-164.5 v -356.5 c 179,-61 371,-94 570.5,-94 199.5,0 392,33 571,94.5 v 356 c 101.5,44 197,99.5 284.5,164.5 l 308.5,-178 c 288.5,252.5 494.5,597 571,988.5 l -308.5,178.5 c 6.5,53.5 9.5,108.5 9.5,164"
         style="fill:#3e4463;fill-opacity:1;fill-rule:nonzero;stroke:none"
         id="path40" />
      <path
         d="m 15971.9,20515 c 0,-220 -180.1,-400 -400,-400 H 13372 c -220,0 -400,180 -400,400 v 822.5 c 0,220 180,400 400,400 h 2199.9 c 219.9,0 400,-180 400,-400 V 20515"
         style="fill:#8a6bff;fill-opacity:1;fill-rule:nonzero;stroke:none"
         id="path42" />
      <path
         d="m 15056.8,20395 c -24.8,0 -49.7,9.2 -69.1,27.7 -39.9,38.2 -41.3,101.5 -3.1,141.4 l 346.4,362.1 -346.4,362.2 c -38.2,39.9 -36.8,103.2 3.1,141.3 39.9,38.2 103.2,36.8 141.4,-3.1 l 412.5,-431.3 c 37,-38.6 37,-99.5 0,-138.2 l -412.5,-431.2 c -19.6,-20.6 -45.9,-30.9 -72.3,-30.9"
         style="fill:#e5e7e8;fill-opacity:1;fill-rule:nonzero;stroke:none"
         id="path44" />
      <path
         d="m 13887,20395 c -26.3,0 -52.6,10.3 -72.3,30.9 l -412.5,431.2 c -36.9,38.7 -36.9,99.6 0,138.2 l 412.5,431.3 c 38.2,39.9 101.5,41.3 141.4,3.1 39.9,-38.1 41.4,-101.4 3.2,-141.3 l -346.4,-362.2 346.4,-362.1 c 38.2,-39.9 36.7,-103.2 -3.2,-141.4 -19.3,-18.5 -44.2,-27.7 -69.1,-27.7"
         style="fill:#e5e7e8;fill-opacity:1;fill-rule:nonzero;stroke:none"
         id="path46" />
      <path
         d="m 14309.4,20394.9 c -11.7,0 -23.6,2.1 -35.2,6.5 -51.7,19.5 -77.8,77.1 -58.4,128.8 l 325,862.5 c 19.5,51.7 77.2,77.8 128.9,58.4 51.7,-19.5 77.8,-77.2 58.3,-128.9 l -325,-862.5 c -15.1,-40 -53.2,-64.8 -93.6,-64.8"
         style="fill:#e5e7e8;fill-opacity:1;fill-rule:nonzero;stroke:none"
         id="path48" />
      <path
         d="m 25965.7,10007.5 c 0,-917 -2612.9,-3001 -5836,-3001 -3223.2,0 -5836,2084 -5836,3000.9 0,917 2612.8,1660.4 5836,1660.4 3223.1,0 5836,-743.4 5836,-1660.3"
         style="fill:#d8d8e6;fill-opacity:1;fill-rule:nonzero;stroke:none"
         id="path50" />
      <path
         d="m 23250.7,12531.8 c 400.8,-29.6 2374.3,-670.4 2424.3,-1220.4 50,-550 -4150,-2975 -5990.6,-2950 -1840.5,25 -5359.4,2300 -5234.4,2841.7 125,541.6 1455.9,1265.1 2275,1328.7 1025,79.6 6525.7,0 6525.7,0"
         style="fill:#292f52;fill-opacity:1;fill-rule:nonzero;stroke:none"
         id="path52" />
      <path
         d="m 19583.3,9554.1 c 279.2,-67.7 766.7,-442.7 941.7,-542.7 175,-100 937.5,-562.5 1000,-762.5 62.5,-200 50,-787.5 -375,-962.5 -425,-175 -1850,312.5 -2037.5,487.5 -212.5,1387.5 470.8,1780.2 470.8,1780.2"
         style="fill:#292f52;fill-opacity:1;fill-rule:nonzero;stroke:none"
         id="path54" />
      <path
         d="m 14446.7,11261.4 c -143.4,-212.5 -184.2,-1062.5 3.3,-1362.5 187.5,-300 2212.5,-1650 4550,-2125 -75,350 744.5,1380.2 911.1,1562.5 -1708.3,840.7 -4161.1,2262.5 -5464.4,1925"
         style="fill:#3e4463;fill-opacity:1;fill-rule:nonzero;stroke:none"
         id="path56" />
      <path
         d="m 19758.3,9153.1 c -1070.8,120.8 -2435.6,-516.7 -2534.5,-916.7 -98.8,-400 -11.3,-875 238.7,-1112.5 250,-237.5 1895.8,-137.6 2729.2,512.5 170.8,675 -433.4,1516.7 -433.4,1516.7"
         style="fill:#292f52;fill-opacity:1;fill-rule:nonzero;stroke:none"
         id="path58" />
      <path
         d="m 19742.7,8960.2 c -446.9,17.9 -1317.7,-211.3 -1567.7,-436.3 150,-387.5 262.5,-950 137.5,-1137.5 500,-87.5 1472.2,162.5 1748.6,387.5 26.4,362.5 -318.4,1186.3 -318.4,1186.3"
         style="fill:#8a3eff;fill-opacity:1;fill-rule:nonzero;stroke:none"
         id="path60" />
      <path
         d="m 25675,11311.4 c 191.9,-325 300,-1175 0,-1475 -300,-300 -3500,-1916.7 -5483.3,-2200 -300,283.3 -516.7,1350 -433.4,1516.7 1333.4,1016.6 4350,2350 5916.7,2158.3"
         style="fill:#3e4463;fill-opacity:1;fill-rule:nonzero;stroke:none"
         id="path62" />
      <path
         d="m 23075.4,13853.3 c 53.2,-673.4 -287.5,-750 -525,-912.5 -237.5,-162.5 -162.5,-650 -75,-1475 -537.5,-425 -3450,-1062.5 -5062.5,-200 37.5,237.5 62.5,887.5 25,1175 -37.5,287.5 -175,450 -662.5,737.5 -487.5,287.5 25,3375 237.5,3637.5 212.5,262.5 1525,1087.5 2212.5,1187.5 0,0 1050,62.5 1475,0 425,-62.5 1962.5,-787.5 2375,-1262.5 412.5,-475 -37.5,-2412.5 0,-2887.5"
         style="fill:#8a3eff;fill-opacity:1;fill-rule:nonzero;stroke:none"
         id="path64" />
      <path
         d="m 21608.3,11203.1 c 66.7,16.6 1466.7,250 2083.4,700 864.4,630.7 -267.4,4416.2 -557.1,4748.5 0,0 -221.7,364.2 -853.2,665.5 -481,-288.8 -366.4,-1617.9 -331,-1888.8 107.9,-825.2 449.1,-1963 524.6,-2225.2 -183.3,-200 -1066.7,-600 -1066.7,-600 l 200,-1400"
         style="fill:#8a6bff;fill-opacity:1;fill-rule:nonzero;stroke:none"
         id="path66" />
      <path
         d="m 18408.3,11119.7 c 0,0 -599.6,-27.8 -1166.6,166.7 -2039.3,699.6 -1041.3,4604.4 -228.8,5529.4 0,0 273.4,294.4 632.7,477.6 295.2,-122.4 532.9,-900.6 359,-1790.3 -162.9,-833.4 -396.3,-2450 -396.3,-2616.7 183.4,-133.3 716.7,-400 716.7,-400 l 83.3,-1366.7"
         style="fill:#8a6bff;fill-opacity:1;fill-rule:nonzero;stroke:none"
         id="path68" />
      <path
         d="m 22757.5,10686.4 h -5598.4 l -242.5,3519.5 c 1451.3,228.4 4870.7,228.4 6083.4,0 l -242.5,-3519.5"
         style="fill:#cfd2d3;fill-opacity:1;fill-rule:nonzero;stroke:none"
         id="path70" />
      <path
         d="m 20333.3,12531.8 c 0,-207.1 -167.9,-375 -375,-375 -207.1,0 -375,167.9 -375,375 0,207.2 167.9,375 375,375 207.1,0 375,-167.8 375,-375"
         style="fill:#e6e8e8;fill-opacity:1;fill-rule:nonzero;stroke:none"
         id="path72" />
      <path
         d="m 22757.5,10686.4 v -291.6 h -5602.3 l 3.9,291.6 h 5598.4"
         style="fill:#a2a9ad;fill-opacity:1;fill-rule:nonzero;stroke:none"
         id="path74" />
      <path
         d="m 20829.6,18728.3 c -21.6,-225.1 -41.7,-783.4 100,-983.4 -541.7,-475 -1583.3,-383.3 -1925,-58.3 75,266.7 75,816.7 0,991.7 -75,175 883.3,308.3 883.3,308.3 l 941.7,-258.3"
         style="fill:#ffa993;fill-opacity:1;fill-rule:nonzero;stroke:none"
         id="path76" />
      <path
         d="m 18226.4,20102.9 c -667.3,1583.9 328.2,1633.7 328.2,1633.7 216.6,727.8 1565.9,840.3 2016.6,683.3 741.7,-258.3 1253.4,-1049 915,-2262.8 0,0 -417.1,-1819.4 -1423.3,-1816.3 -1009.4,3.1 -1836.5,1762.1 -1836.5,1762.1"
         style="fill:#292f52;fill-opacity:1;fill-rule:nonzero;stroke:none"
         id="path78" />
      <path
         d="m 21687.8,19732.4 c 0,-385.6 -344.3,-495.8 -558.3,-495.8 -214.1,0 -152.1,344.3 -152.1,560.6 0,216.4 29.7,431.1 243.8,431.1 214,0 466.6,-100 466.6,-495.9"
         style="fill:#ffa993;fill-opacity:1;fill-rule:nonzero;stroke:none"
         id="path80" />
      <path
         d="m 18004.6,19661.3 c 0,-385.6 344.3,-495.8 558.3,-495.8 214,0 152.1,344.3 152.1,560.6 0,216.3 -29.7,431 -243.8,431 -214,0 -466.6,-100 -466.6,-495.8"
         style="fill:#ffa993;fill-opacity:1;fill-rule:nonzero;stroke:none"
         id="path82" />
      <path
         d="m 20313.9,18031.1 c -392.7,-177.8 -991.8,-155.6 -1258.9,0 5.1,122.4 8,276.5 0,365.2 316.2,-101.3 1258.9,-365.2 1258.9,-365.2"
         style="fill:#ff7d71;fill-opacity:1;fill-rule:nonzero;stroke:none"
         id="path84" />
      <path
         d="m 18379.6,20045 c 0,-1200 600,-2041.7 1683.3,-2041.7 1083.3,0 1333.3,1416.7 1333.3,2041.7 0,625 -1008.3,1341.6 -1549.9,1341.6 -1316.7,0 -1466.7,-1341.6 -1466.7,-1341.6"
         style="fill:#ffb29e;fill-opacity:1;fill-rule:nonzero;stroke:none"
         id="path86" />
      <path
         d="m 18379.6,19732.4 c 441.7,279.2 557.9,738.3 658.3,795.9 581.3,333.3 984.4,-252.8 1800,33.3 0,0 166.7,-514.1 558.3,-671.6 18.3,331.3 -403.5,897.1 -651.8,1121.8 -248.2,224.8 -1690.3,473.4 -1956.7,-67.6 -266.5,-540.9 -408.1,-1211.8 -408.1,-1211.8"
         style="fill:#ff7d71;fill-opacity:1;fill-rule:nonzero;stroke:none"
         id="path88" />
      <path
         d="m 18379.6,19732.4 c 325,212.5 483.3,687.6 508.3,870.9 733.3,541.6 1283.3,-158.4 2008.3,50 58.4,-266.7 325,-659.9 500,-763.3 32.3,209.5 146.8,555.6 55.2,789 -91.7,233.3 -202.4,1057.6 -1645.4,1099.3 -1443.1,41.6 -1659.7,-883.4 -1626.4,-1166.7 33.3,-283.3 200,-879.2 200,-879.2"
         style="fill:#292f52;fill-opacity:1;fill-rule:nonzero;stroke:none"
         id="path90" />
      <path
         d="m 20550.4,19656.4 c 0,-88 -42,-159.4 -93.8,-159.4 -51.7,0 -93.7,71.4 -93.7,159.4 0,88 42,159.4 93.7,159.4 51.8,0 93.8,-71.4 93.8,-159.4"
         style="fill:#292f52;fill-opacity:1;fill-rule:nonzero;stroke:none"
         id="path92" />
      <path
         d="m 19528.5,19656.4 c 0,-88 -42,-159.4 -93.7,-159.4 -51.8,0 -93.8,71.4 -93.8,159.4 0,88 42,159.4 93.8,159.4 51.7,0 93.7,-71.4 93.7,-159.4"
         style="fill:#292f52;fill-opacity:1;fill-rule:nonzero;stroke:none"
         id="path94" />
      <path
         d="m 20329.1,20232.6 c 0,0 0.6,2.2 1.7,6.2 1.3,3.9 2.9,10.7 6.1,17 6.1,13.6 16.3,31.8 32.4,48.1 7.9,8.7 17,17.5 27.9,24.3 10.3,7.8 22.1,15 34.8,20.9 13,5.2 26.6,10.9 41.2,13.5 14.5,3.3 29.5,5 44.8,5.3 15.2,0.1 30.4,-0.9 45.3,-4.1 14.9,-2.1 29.2,-7.5 42.6,-13 13.5,-4.6 25.4,-13.7 36.4,-21 11.3,-6.5 20.5,-16 28.4,-25 16.5,-16.6 26,-35.6 31.4,-49.4 5.4,-13.9 7.2,-22.8 7.1,-22.8 l 0.8,-4 c 0.4,-2.3 -1.1,-4.5 -3.4,-4.9 -0.8,-0.2 -1.7,0 -2.5,0.3 0,0 -5.5,2.6 -15.1,7 -9.5,4.8 -23.3,10.8 -40.3,16.6 -8.4,3.3 -17.5,6.6 -27.6,8.8 -10,2.5 -20.3,5.8 -31.5,7 -22.1,3.7 -46,5.8 -69.9,4.5 -47.8,0.5 -95.5,-10 -129.6,-21.8 -34.5,-11.1 -55.9,-22.1 -55.9,-22.1 -2.1,-1.1 -4.6,-0.3 -5.7,1.8 -0.6,1 -0.7,2 -0.4,3 l 1,3.8"
         style="fill:#ff7167;fill-opacity:1;fill-rule:nonzero;stroke:none"
         id="path96" />
      <path
         d="m 19192,20232.8 c 0,0 1.7,8.9 7.2,21.9 5.5,12.8 14.5,29.7 28.4,45.1 6.8,8 14.5,16.4 23.7,23 9.2,6.8 18.8,15 30,20.1 21.9,11.7 48,18.9 75.5,21.3 27.4,1.9 56.6,-2.3 82.7,-12.3 26.1,-11.1 48.9,-27 63.9,-45.4 7.7,-9 13.3,-18.8 17.7,-27.2 4.6,-8.1 6.3,-17.7 8.1,-24.4 3,-14.3 2.6,-22.8 2.6,-22.8 l -0.2,-4.3 c -0.1,-2.3 -2,-4 -4.3,-3.9 -0.7,0 -1.5,0.2 -2.1,0.6 0,0 -4.5,2.9 -12.3,8 -7.4,5.9 -19.7,11.1 -34,17.8 -14.8,5.8 -32.6,10.9 -52.4,13.6 -19.8,2.3 -41.2,2.7 -62.5,0.6 -42.9,-2.4 -85.4,-12.7 -116.3,-22.8 -31.2,-9.7 -51.3,-17.9 -51.3,-17.9 -2,-0.8 -4.3,0.1 -5.1,2.1 -0.3,0.8 -0.4,1.5 -0.2,2.3 l 0.9,4.6"
         style="fill:#ff7167;fill-opacity:1;fill-rule:nonzero;stroke:none"
         id="path98" />
      <path
         d="m 20128.5,19291.9 c 0,0 2.4,-7 6.4,-19.4 3.6,-11.9 11,-29 18.7,-49.7 15.9,-41.4 38.3,-97.1 50.4,-158.7 5.2,-30.9 9.1,-63.8 -0.1,-97.2 -4.2,-16.6 -14,-33.2 -27.3,-44.2 -13.3,-11.2 -28.6,-16.5 -41.5,-18.5 -26.5,-4.3 -45.8,1.7 -59.4,3.9 -13.2,3.8 -20.5,6.3 -20.5,6.3 -4.1,1.5 -6.3,6.1 -4.8,10.2 1.1,3.2 3.9,5.2 7.1,5.3 l 0.6,0.1 c 0,0 7.5,0.3 20.1,0.3 12.3,0.5 31,1.4 48.4,7.9 17.6,6.8 29.7,17.9 33.1,39.7 3.8,21.4 0.7,49.4 -4.7,77 -11.1,55.7 -27.9,113.3 -35.8,158.3 -4.4,22.4 -5.6,41.7 -6.6,55.5 -0.8,14.1 0.3,21.3 0.3,21.3 l 0.1,0.7 c 0.7,4.3 4.8,7.3 9.2,6.7 3,-0.5 5.4,-2.7 6.3,-5.5"
         style="fill:#ff7167;fill-opacity:1;fill-rule:nonzero;stroke:none"
         id="path100" />
      <path
         d="m 19628.2,18672.5 c 0,0 12.7,-5.2 34.1,-15.4 10.8,-5.9 23.8,-10.2 37.8,-15 13.9,-5.2 29.7,-10.6 48.4,-15.4 17.9,-5.5 37.9,-10 59.1,-14.3 20.8,-5.3 43.9,-6.9 66.9,-11.4 23.5,-2.5 47.7,-4.9 72.4,-6.7 24.9,-1.6 50,-2.4 75.3,-2.1 25.3,-1.2 50.6,1.3 75.5,2.1 24.6,2.8 49.5,2.8 72.7,7 23.5,3.2 46.3,6 67.5,10.6 21.7,3.5 40.8,9.6 59.7,13.4 17.6,5.9 34.7,10.2 49.1,15.4 13.7,6.2 27,10.2 36.9,14.9 19.2,10.1 31.2,15.7 31.2,15.7 l 2.4,1.1 c 7.9,3.7 17.4,0.3 21.1,-7.6 2.7,-5.8 1.5,-12.4 -2.4,-17 0,0 -9.1,-10.7 -26.9,-29.2 -18.7,-16.9 -47.6,-38.7 -85.8,-58.5 -19.3,-8.3 -40,-20.2 -63.2,-26.9 -23,-8.2 -47.4,-16.4 -73.3,-21.6 -25.8,-6.6 -52.7,-10.1 -80.3,-14.3 -27.6,-1.8 -55.6,-5.2 -83.8,-4.7 -28.2,-0.9 -56.4,1.8 -84.1,4.2 -27.7,2.2 -54.7,8.1 -80.7,13.4 -25.7,6.8 -50.7,12.4 -73.5,22.2 -11.4,4.4 -22.5,8.6 -33.2,12.8 -10.3,5.3 -20.2,10.4 -29.8,15.4 -19,9.1 -36,20.3 -50.5,31.2 -15,10.1 -26.7,19.5 -34.5,28.1 -16.9,16.6 -26.2,26.7 -26.2,26.7 -6,6.6 -5.6,16.8 1,22.9 4.7,4.3 11.5,5.3 17.1,3"
         style="fill:#ff7167;fill-opacity:1;fill-rule:nonzero;stroke:none"
         id="path102" />
    </g>
  </g>
</svg>
